<svg width="21" height="21" viewBox="0 0 21 21" fill="none" xmlns="http://www.w3.org/2000/svg">
<path fill-rule="evenodd" clip-rule="evenodd" d="M8.38481 13.7421C4.54081 13.7421 1.25781 14.3231 1.25781 16.6511C1.25781 18.9791 4.52081 19.5811 8.38481 19.5811C12.2298 19.5811 15.5118 18.9991 15.5118 16.6721C15.5118 14.3451 12.2498 13.7421 8.38481 13.7421Z" stroke="#554AF0" stroke-width="1.5" stroke-linecap="round" stroke-linejoin="round"/>
<path fill-rule="evenodd" clip-rule="evenodd" d="M8.38539 10.4218C10.9084 10.4218 12.9534 8.37677 12.9534 5.85377C12.9534 3.33077 10.9084 1.28577 8.38539 1.28577C5.86339 1.28577 3.81839 3.33077 3.81839 5.85377C3.80939 8.36777 5.83939 10.4128 8.35439 10.4218H8.38539Z" stroke="#554AF0" stroke-width="1.5" stroke-linecap="round" stroke-linejoin="round"/>
<path d="M17.7109 7.20496V11.215" stroke="#554AF0" stroke-width="1.5" stroke-linecap="round" stroke-linejoin="round"/>
<path d="M19.758 9.20984H15.668" stroke="#554AF0" stroke-width="1.5" stroke-linecap="round" stroke-linejoin="round"/>
</svg>
