<svg width="25" height="25" viewBox="0 0 25 25" fill="none" xmlns="http://www.w3.org/2000/svg">
<path fill-rule="evenodd" clip-rule="evenodd" d="M15.9541 4.32396C16.9641 4.72596 17.2731 6.12596 17.6861 6.57596C18.0991 7.02596 18.6901 7.17896 19.0171 7.17896C20.7551 7.17896 22.1641 8.58796 22.1641 10.325V16.12C22.1641 18.45 20.2741 20.34 17.9441 20.34H7.88406C5.55306 20.34 3.66406 18.45 3.66406 16.12V10.325C3.66406 8.58796 5.07306 7.17896 6.81106 7.17896C7.13706 7.17896 7.72806 7.02596 8.14206 6.57596C8.55506 6.12596 8.86306 4.72596 9.87306 4.32396C10.8841 3.92196 14.9441 3.92196 15.9541 4.32396Z" stroke="white" stroke-width="1.5" stroke-linecap="round" stroke-linejoin="round"/>
<path d="M18.4096 9.77246H18.4186" stroke="#04021D" stroke-width="2" stroke-linecap="round" stroke-linejoin="round"/>
<path fill-rule="evenodd" clip-rule="evenodd" d="M16.0924 13.4007C16.0924 11.6447 14.6694 10.2217 12.9134 10.2217C11.1574 10.2217 9.73438 11.6447 9.73438 13.4007C9.73438 15.1567 11.1574 16.5797 12.9134 16.5797C14.6694 16.5797 16.0924 15.1567 16.0924 13.4007Z" stroke="white" stroke-width="1.5" stroke-linecap="round" stroke-linejoin="round"/>
</svg>
