<svg width="18" height="25" viewBox="0 0 18 25" fill="none" xmlns="http://www.w3.org/2000/svg">
<path d="M4.22343 13.1326C4.26667 13.1326 4.39641 13.1758 4.56939 13.2191C5.34778 13.4785 6.94782 13.9975 8.5911 13.9975C10.7966 13.9975 13.002 13.1326 13.0885 13.0893C13.3047 13.0028 13.4345 12.7434 13.348 12.5272C13.2615 12.3109 13.002 12.1812 12.7858 12.2677C12.7858 12.2677 10.6668 13.0893 8.63435 13.0893C7.1208 13.0893 5.60725 12.6136 4.8721 12.3542C4.52614 12.3109 4.39641 12.2677 4.26668 12.2677C4.00721 12.2677 3.83423 12.4407 3.83423 12.7001C3.83423 12.9163 4.00721 13.1326 4.22343 13.1326Z" fill="#686777"/>
<path d="M16.721 22.6463L14.9048 17.0246C14.948 16.9813 15.0345 16.8948 15.0777 16.8516C16.0724 15.684 16.5481 14.0839 16.3318 12.4839L15.5534 7.03513C15.0777 3.53234 12.5263 1.02417 9.45599 1.02417H7.59649C4.4829 1.02417 1.845 3.70532 1.4558 7.25135L0.850377 12.6569C0.6774 14.2569 1.15309 15.8137 2.14771 16.8948C2.19095 16.9381 2.23419 16.9813 2.27744 17.0246L0.461178 22.6463C0.244957 23.1652 0.417934 23.7274 0.893621 24.0734C1.10984 24.2464 1.41255 24.3328 1.75851 24.3328C2.10446 24.3328 2.45042 24.2031 2.75313 23.9436C2.79637 23.9004 2.83961 23.8572 2.83961 23.8139L5.43427 18.2786H11.7912L14.3858 23.8139C14.4291 23.8572 14.4291 23.9004 14.4723 23.9436C14.775 24.2031 15.121 24.3328 15.4669 24.3328C15.7697 24.3328 16.0724 24.2464 16.3318 24.0734C16.7643 23.7707 16.9373 23.2085 16.721 22.6463ZM1.71526 12.7434L2.32068 7.33784C2.62339 4.22425 4.91534 1.88906 7.59649 1.88906H9.45599C12.0939 1.88906 14.2993 4.09451 14.6885 7.12161L15.4669 12.5704C15.6399 13.911 15.2507 15.2948 14.4291 16.2462C13.7804 17.0246 12.8723 17.457 11.9642 17.457H5.21805C4.30992 17.457 3.44503 17.0678 2.79637 16.2894C1.93148 15.3813 1.54229 14.0839 1.71526 12.7434ZM2.06122 23.4247C1.845 23.5977 1.54229 23.5112 1.36931 23.4247C1.19633 23.295 1.15309 23.1652 1.23958 23.0355V22.9923L2.9261 17.6732C3.40179 17.9759 3.87748 18.1922 4.43965 18.2786L2.06122 23.4247ZM15.7697 23.3815C15.6399 23.468 15.3372 23.5544 15.0777 23.3815L12.6561 18.2354C13.175 18.1489 13.6939 17.9327 14.1696 17.63L15.8561 22.949V22.9923C15.9859 23.1652 15.9426 23.295 15.7697 23.3815Z" fill="#686777"/>
<path d="M4.71097 5.56479C4.79746 5.60804 4.8407 5.60803 4.92719 5.60803C5.05692 5.60803 5.2299 5.52155 5.31639 5.39181L5.44612 5.13235C5.87856 4.35395 6.52723 3.96475 7.30563 3.87826H7.56509C7.82456 3.87826 7.99753 3.66204 7.95429 3.40258C7.95429 3.14311 7.73807 2.97013 7.4786 3.01338H7.21914C6.18127 3.09987 5.27314 3.66204 4.66772 4.6999L4.53799 4.95937C4.4515 5.17559 4.49475 5.43506 4.71097 5.56479Z" fill="#686777"/>
<path d="M4.22343 13.1326C4.26667 13.1326 4.39641 13.1758 4.56939 13.2191C5.34778 13.4785 6.94782 13.9975 8.5911 13.9975C10.7966 13.9975 13.002 13.1326 13.0885 13.0893C13.3047 13.0028 13.4345 12.7434 13.348 12.5272C13.2615 12.3109 13.002 12.1812 12.7858 12.2677C12.7858 12.2677 10.6668 13.0893 8.63435 13.0893C7.1208 13.0893 5.60725 12.6136 4.8721 12.3542C4.52614 12.3109 4.39641 12.2677 4.26668 12.2677C4.00721 12.2677 3.83423 12.4407 3.83423 12.7001C3.83423 12.9163 4.00721 13.1326 4.22343 13.1326Z" stroke="#686777" stroke-width="0.5"/>
<path d="M16.721 22.6463L14.9048 17.0246C14.948 16.9813 15.0345 16.8948 15.0777 16.8516C16.0724 15.684 16.5481 14.0839 16.3318 12.4839L15.5534 7.03513C15.0777 3.53234 12.5263 1.02417 9.45599 1.02417H7.59649C4.4829 1.02417 1.845 3.70532 1.4558 7.25135L0.850377 12.6569C0.6774 14.2569 1.15309 15.8137 2.14771 16.8948C2.19095 16.9381 2.23419 16.9813 2.27744 17.0246L0.461178 22.6463C0.244957 23.1652 0.417934 23.7274 0.893621 24.0734C1.10984 24.2464 1.41255 24.3328 1.75851 24.3328C2.10446 24.3328 2.45042 24.2031 2.75313 23.9436C2.79637 23.9004 2.83961 23.8572 2.83961 23.8139L5.43427 18.2786H11.7912L14.3858 23.8139C14.4291 23.8572 14.4291 23.9004 14.4723 23.9436C14.775 24.2031 15.121 24.3328 15.4669 24.3328C15.7697 24.3328 16.0724 24.2464 16.3318 24.0734C16.7643 23.7707 16.9373 23.2085 16.721 22.6463ZM1.71526 12.7434L2.32068 7.33784C2.62339 4.22425 4.91534 1.88906 7.59649 1.88906H9.45599C12.0939 1.88906 14.2993 4.09451 14.6885 7.12161L15.4669 12.5704C15.6399 13.911 15.2507 15.2948 14.4291 16.2462C13.7804 17.0246 12.8723 17.457 11.9642 17.457H5.21805C4.30992 17.457 3.44503 17.0678 2.79637 16.2894C1.93148 15.3813 1.54229 14.0839 1.71526 12.7434ZM2.06122 23.4247C1.845 23.5977 1.54229 23.5112 1.36931 23.4247C1.19633 23.295 1.15309 23.1652 1.23958 23.0355V22.9923L2.9261 17.6732C3.40179 17.9759 3.87748 18.1922 4.43965 18.2786L2.06122 23.4247ZM15.7697 23.3815C15.6399 23.468 15.3372 23.5544 15.0777 23.3815L12.6561 18.2354C13.175 18.1489 13.6939 17.9327 14.1696 17.63L15.8561 22.949V22.9923C15.9859 23.1652 15.9426 23.295 15.7697 23.3815Z" stroke="#686777" stroke-width="0.5"/>
<path d="M4.71097 5.56479C4.79746 5.60804 4.8407 5.60803 4.92719 5.60803C5.05692 5.60803 5.2299 5.52155 5.31639 5.39181L5.44612 5.13235C5.87856 4.35395 6.52723 3.96475 7.30563 3.87826H7.56509C7.82456 3.87826 7.99753 3.66204 7.95429 3.40258C7.95429 3.14311 7.73807 2.97013 7.4786 3.01338H7.21914C6.18127 3.09987 5.27314 3.66204 4.66772 4.6999L4.53799 4.95937C4.4515 5.17559 4.49475 5.43506 4.71097 5.56479Z" stroke="#686777" stroke-width="0.5"/>
</svg>
