<svg width="40" height="40" viewBox="0 0 40 40" fill="none" xmlns="http://www.w3.org/2000/svg">
<path opacity="0.3" d="M8.26668 34.5255C8.24555 34.5255 8.22605 34.5255 8.2033 34.5239C7.69143 34.4979 7.1893 34.3874 6.71155 34.194C4.36018 33.2385 3.22593 30.5524 4.1798 28.2027L16.0764 7.3604C16.4859 6.6194 17.1067 5.99865 17.8639 5.5794C20.0821 4.3509 22.8868 5.15853 24.1137 7.37503L35.9323 28.058C36.1956 28.6772 36.3077 29.1809 36.3353 29.6944C36.3987 30.9229 35.9794 32.101 35.1572 33.0127C34.3349 33.9243 33.2056 34.4622 31.9787 34.5239L8.38368 34.5255H8.26668Z" fill="#FF6B00"/>
<path fill-rule="evenodd" clip-rule="evenodd" d="M18.6699 16.4125C18.6699 15.6292 19.3085 14.9906 20.0918 14.9906C20.875 14.9906 21.5137 15.6292 21.5137 16.4125V21.008C21.5137 21.7928 20.875 22.4298 20.0918 22.4298C19.3085 22.4298 18.6699 21.7928 18.6699 21.008V16.4125ZM18.6699 26.5673C18.6699 25.7791 19.3085 25.1373 20.0918 25.1373C20.875 25.1373 21.5137 25.771 21.5137 26.5494C21.5137 27.3505 20.875 27.9891 20.0918 27.9891C19.3085 27.9891 18.6699 27.3505 18.6699 26.5673Z" fill="#FF6B00"/>
</svg>
