<svg width="25" height="25" viewBox="0 0 25 25" fill="none" xmlns="http://www.w3.org/2000/svg">
<path fill-rule="evenodd" clip-rule="evenodd" d="M3.3418 6.94629C3.3418 4.32108 3.36991 3.44629 6.8418 3.44629C10.3137 3.44629 10.3418 4.32108 10.3418 6.94629C10.3418 9.5715 10.3529 10.4463 6.8418 10.4463C3.33072 10.4463 3.3418 9.5715 3.3418 6.94629Z" stroke="#686777" stroke-width="1.5" stroke-linecap="round" stroke-linejoin="round"/>
<path fill-rule="evenodd" clip-rule="evenodd" d="M14.3418 6.94629C14.3418 4.32108 14.3699 3.44629 17.8418 3.44629C21.3137 3.44629 21.3418 4.32108 21.3418 6.94629C21.3418 9.5715 21.3529 10.4463 17.8418 10.4463C14.3307 10.4463 14.3418 9.5715 14.3418 6.94629Z" stroke="#686777" stroke-width="1.5" stroke-linecap="round" stroke-linejoin="round"/>
<path fill-rule="evenodd" clip-rule="evenodd" d="M3.3418 17.9463C3.3418 15.3211 3.36991 14.4463 6.8418 14.4463C10.3137 14.4463 10.3418 15.3211 10.3418 17.9463C10.3418 20.5715 10.3529 21.4463 6.8418 21.4463C3.33072 21.4463 3.3418 20.5715 3.3418 17.9463Z" stroke="#686777" stroke-width="1.5" stroke-linecap="round" stroke-linejoin="round"/>
<path fill-rule="evenodd" clip-rule="evenodd" d="M14.3418 17.9463C14.3418 15.3211 14.3699 14.4463 17.8418 14.4463C21.3137 14.4463 21.3418 15.3211 21.3418 17.9463C21.3418 20.5715 21.3529 21.4463 17.8418 21.4463C14.3307 21.4463 14.3418 20.5715 14.3418 17.9463Z" stroke="#686777" stroke-width="1.5" stroke-linecap="round" stroke-linejoin="round"/>
</svg>
