<svg width="21" height="20" viewBox="0 0 21 20" fill="none" xmlns="http://www.w3.org/2000/svg">
<path d="M17.0997 1.4538C16.613 1.4538 16.1462 1.64715 15.8021 1.99131C15.4579 2.33547 15.2646 2.80225 15.2646 3.28896C15.2646 3.77567 15.4579 4.24245 15.8021 4.58661C16.1462 4.93077 16.613 5.12412 17.0997 5.12412C17.5865 5.12412 18.0532 4.93077 18.3974 4.58661C18.7416 4.24245 18.9349 3.77567 18.9349 3.28896C18.9349 2.80225 18.7416 2.33547 18.3974 1.99131C18.0532 1.64715 17.5865 1.4538 17.0997 1.4538ZM14.0411 3.28896C14.0411 2.57133 14.2933 1.87652 14.7538 1.32609C15.2142 0.775659 15.8535 0.40466 16.5599 0.278002C17.2663 0.151344 17.9947 0.277092 18.6177 0.633246C19.2407 0.989399 19.7187 1.55328 19.9679 2.22623C20.2172 2.89918 20.2219 3.63835 19.9812 4.31441C19.7405 4.99047 19.2697 5.56038 18.6513 5.92442C18.0329 6.28846 17.3061 6.42345 16.5982 6.30577C15.8903 6.1881 15.2463 5.82525 14.7789 5.28072L6.55983 9.09784C6.74877 9.69664 6.74877 10.3391 6.55983 10.9379L14.7789 14.755C15.273 14.1804 15.9628 13.8097 16.7146 13.7147C17.4664 13.6197 18.2268 13.8072 18.8483 14.2408C19.4697 14.6744 19.9081 15.3234 20.0784 16.0618C20.2487 16.8002 20.1388 17.5756 19.77 18.2376C19.4012 18.8996 18.7998 19.4012 18.0823 19.645C17.3647 19.8889 16.5823 19.8577 15.8864 19.5575C15.1906 19.2573 14.631 18.7095 14.3161 18.0202C14.0011 17.3309 13.9533 16.5493 14.1818 15.8267L5.96279 12.0096C5.55591 12.4838 5.01358 12.822 4.40875 12.9787C3.80392 13.1354 3.1656 13.1031 2.57966 12.8862C1.99373 12.6693 1.48828 12.2781 1.13132 11.7653C0.774359 11.2525 0.583008 10.6427 0.583008 10.0179C0.583008 9.39306 0.774359 8.78324 1.13132 8.27045C1.48828 7.75765 1.99373 7.36647 2.57966 7.14954C3.1656 6.93261 3.80392 6.90033 4.40875 7.05704C5.01358 7.21375 5.55591 7.55194 5.96279 8.02611L14.1818 4.20898C14.0883 3.91128 14.0408 3.60102 14.0411 3.28896ZM3.64193 8.18271C3.15521 8.18271 2.68843 8.37606 2.34428 8.72021C2.00012 9.06437 1.80677 9.53115 1.80677 10.0179C1.80677 10.5046 2.00012 10.9714 2.34428 11.3155C2.68843 11.6597 3.15521 11.853 3.64193 11.853C4.12864 11.853 4.59542 11.6597 4.93958 11.3155C5.28374 10.9714 5.47708 10.5046 5.47708 10.0179C5.47708 9.53115 5.28374 9.06437 4.93958 8.72021C4.59542 8.37606 4.12864 8.18271 3.64193 8.18271ZM17.0997 14.9116C16.613 14.9116 16.1462 15.105 15.8021 15.4491C15.4579 15.7933 15.2646 16.2601 15.2646 16.7468C15.2646 17.2335 15.4579 17.7003 15.8021 18.0444C16.1462 18.3886 16.613 18.5819 17.0997 18.5819C17.5865 18.5819 18.0532 18.3886 18.3974 18.0444C18.7416 17.7003 18.9349 17.2335 18.9349 16.7468C18.9349 16.2601 18.7416 15.7933 18.3974 15.4491C18.0532 15.105 17.5865 14.9116 17.0997 14.9116Z" fill="#686777"/>
</svg>
