<svg width="28" height="33" viewBox="0 0 28 33" fill="none" xmlns="http://www.w3.org/2000/svg">
<path opacity="0.3" d="M14.2315 32.8787C14.0303 32.8787 13.8307 32.8325 13.6491 32.7384L7.79698 29.7093C6.13476 28.8488 4.83574 27.8832 3.82303 26.7582C1.60128 24.2979 0.367705 21.1397 0.346437 17.8635L0.279359 7.08059C0.271179 5.8361 1.07284 4.71908 2.2737 4.29841L13.0192 0.552193C13.6589 0.324328 14.3706 0.321142 15.0185 0.541039L25.8049 4.15978C27.0123 4.56293 27.8287 5.67197 27.8352 6.91487L27.904 17.7058C27.9252 20.9771 26.7342 24.1481 24.5484 26.6355C23.5439 27.7764 22.258 28.7564 20.6137 29.6328L14.814 32.7305C14.634 32.8277 14.4328 32.8771 14.2315 32.8787" fill="#FF0000"/>
<path d="M15.8276 16.1816L18.0346 14.0321C18.514 13.5652 18.514 12.8099 18.0346 12.343C17.5553 11.8761 16.7781 11.8761 16.2988 12.343L14.0918 14.491L11.8864 12.343C11.407 11.8761 10.6299 11.8761 10.1505 12.343C9.67118 12.8099 9.67118 13.5652 10.1505 14.0321L12.3576 16.1816L10.1505 18.3312C9.67118 18.7981 9.67118 19.5534 10.1505 20.0203C10.391 20.2545 10.7052 20.3708 11.0193 20.3708C11.3318 20.3708 11.6459 20.2545 11.8864 20.0203L14.0918 17.8723L16.2988 20.0203C16.5393 20.2545 16.8518 20.3708 17.1659 20.3708C17.48 20.3708 17.7941 20.2545 18.0346 20.0203C18.514 19.5534 18.514 18.7981 18.0346 18.3312L15.8276 16.1816Z" fill="#FF0000"/>
</svg>
