<svg width="28" height="33" viewBox="0 0 28 33" fill="none" xmlns="http://www.w3.org/2000/svg">
<path opacity="0.3" d="M14.2323 32.8787C14.0311 32.8787 13.8299 32.8325 13.6483 32.7384L7.79653 29.7093C6.13605 28.8488 4.83711 27.8832 3.82282 26.7582C1.60284 24.2979 0.3677 21.1397 0.348069 17.8635L0.279359 7.08059C0.271179 5.8361 1.07443 4.71908 2.27521 4.29841L13.0201 0.552193C13.6581 0.324328 14.3698 0.321142 15.0192 0.541039L25.805 4.15978C27.0124 4.56293 27.8287 5.67197 27.8352 6.91487L27.904 17.7058C27.9252 20.9771 26.7326 24.1481 24.547 26.6355C23.5442 27.7764 22.2567 28.7564 20.6125 29.6328L14.8131 32.7305C14.6332 32.8277 14.4336 32.8771 14.2323 32.8787" fill="#15AA2C"/>
<path d="M12.9857 20.4001C12.6716 20.4017 12.3575 20.2886 12.1154 20.056L9.00053 17.0603C8.51957 16.595 8.51466 15.8397 8.99072 15.3712C9.46678 14.9011 10.2439 14.8963 10.7265 15.36L12.9677 17.5144L18.4399 12.1189C18.9176 11.6489 19.6947 11.6441 20.1757 12.1078C20.6583 12.5731 20.6632 13.33 20.1871 13.7969L13.8511 20.0448C13.6123 20.2806 13.2998 20.3986 12.9857 20.4001Z" fill="#15AA2C"/>
</svg>
