<svg width="34" height="33" viewBox="0 0 34 33" fill="none" xmlns="http://www.w3.org/2000/svg">
<path opacity="0.3" d="M33.3418 16.6285C33.3418 25.605 26.0667 32.8785 17.0918 32.8785C8.11692 32.8785 0.841797 25.605 0.841797 16.6285C0.841797 7.65523 8.11692 0.378479 17.0918 0.378479C26.0667 0.378479 33.3418 7.65523 33.3418 16.6285" fill="#FAE100"/>
<path d="M22.8996 22.8271C22.6867 22.8271 22.4722 22.7718 22.2756 22.6564L15.8959 18.8507C15.5286 18.6297 15.3027 18.2316 15.3027 17.8026V9.6012C15.3027 8.92845 15.8487 8.38245 16.5215 8.38245C17.1942 8.38245 17.7402 8.92845 17.7402 9.6012V17.1103L23.5252 20.5602C24.1021 20.9063 24.2922 21.6538 23.9477 22.2323C23.7186 22.6142 23.314 22.8271 22.8996 22.8271Z" fill="#FAE100"/>
</svg>
