<svg width="56" height="54" viewBox="0 0 56 54" fill="none" xmlns="http://www.w3.org/2000/svg">
<path fill-rule="evenodd" clip-rule="evenodd" d="M4.90913 4.57602C4.7231 4.6735 4.51571 4.87411 4.44832 5.02179C4.24441 5.46888 3.13222 22.0878 3.1299 24.7231C3.12564 29.5228 4.22613 32.9344 7.5918 38.5561C11.8149 45.6098 15.1 48.4565 20.1484 49.4368C21.595 49.7178 34.0347 49.7192 35.5104 49.4386C39.6374 48.6539 42.4302 46.6858 45.5283 42.379C50.6361 35.2781 52.7623 29.7017 52.5479 23.9686C52.4568 21.5313 51.3252 5.33749 51.2274 5.06968C51.0948 4.7069 50.676 4.45399 50.2282 4.46616C49.5361 4.48507 49.4268 4.69876 48.3322 8.1738C46.2698 14.7211 44.8831 17.9904 43.3078 20.0196C42.5008 21.059 42.0972 21.1054 41.014 20.2831C35.1657 15.8438 27.6865 14.6026 20.8829 16.9422C18.8295 17.6482 16.6621 18.7875 14.9775 20.0461C13.6186 21.0614 13.337 21.0998 12.6425 20.365C11.1007 18.7336 9.56509 15.2555 7.4227 8.54141C6.59583 5.95006 6.22562 4.9225 6.05777 4.75328C5.73232 4.42511 5.31898 4.36133 4.90913 4.57602ZM33.2866 22.047C34.145 22.2946 35.1603 22.8287 35.6715 23.3018C37.6147 25.1 36.4316 28.4454 33.8524 28.4454C33.2717 28.4454 32.43 28.1473 30.7244 27.3378C28.1042 26.0939 27.5633 26.0941 24.9232 27.3399C23.1998 28.1531 22.3727 28.4454 21.7953 28.4454C19.2389 28.4454 18.0436 25.148 19.9404 23.3287C20.5886 22.7071 21.8224 22.1214 22.9001 21.9239C23.8002 21.7589 32.6514 21.8639 33.2866 22.047Z" fill="#554AF0"/>
</svg>
