<svg width="56" height="54" viewBox="0 0 56 54" fill="none" xmlns="http://www.w3.org/2000/svg">
<path fill-rule="evenodd" clip-rule="evenodd" d="M15.9538 4.33393L15.6324 4.60521V13.4291V22.253H16.5671H17.5018V13.4025V4.55203L17.212 4.3073C16.8181 3.97495 16.3679 3.98451 15.9538 4.33393ZM21.5621 4.33393L21.2407 4.60521V13.4291V22.253H22.1754H23.1101V13.3857V4.51825L22.8401 4.2905C22.4618 3.97114 21.9723 3.98776 21.5621 4.33393ZM27.2125 4.2866L26.9039 4.51055L26.8742 13.3818L26.8446 22.253H27.8386H28.8326L28.803 13.3818L28.7733 4.51055L28.4648 4.2866C28.0704 4.00038 27.6068 4.00038 27.2125 4.2866ZM32.8371 4.2905L32.5672 4.51825V13.3857V22.253H33.5019H34.4366V13.4291V4.60521L34.1151 4.33393C33.705 3.98776 33.2154 3.97114 32.8371 4.2905ZM38.4664 4.29022L38.1754 4.51788V13.3854V22.253H39.1101H40.0448V13.4291V4.60521L39.7234 4.33393C39.3195 3.99305 38.8666 3.97727 38.4664 4.29022ZM8.02618 4.50711C7.80845 4.72549 7.69122 5.08289 7.40014 6.41645C5.61331 14.6025 4.81408 25.0563 5.68204 28.8888C8.49573 41.3138 24.3313 48.0136 37.8011 42.478C44.8177 39.5944 49.5194 33.7753 50.2805 27.0327C50.5412 24.7226 50.1608 18.0823 49.4937 13.2971C49.1277 10.6724 48.1622 5.51603 47.902 4.79658C47.7974 4.5072 47.3383 4.23286 47.0116 4.26442L46.6978 4.29467L46.6428 13.1579C46.5804 23.2103 46.6554 22.4493 45.652 23.2107C44.7824 23.8706 45.9263 23.8308 27.8386 23.8308C9.751 23.8308 10.8949 23.8706 10.0253 23.2107C9.02181 22.4493 9.09681 23.2103 9.03446 13.1579L8.97947 4.29467L8.63682 4.26655C8.37048 4.24465 8.23446 4.29829 8.02618 4.50711ZM22.2321 47.1637C22.2343 49.124 22.3365 49.398 23.2098 49.7869C23.932 50.1084 31.6456 50.1262 32.424 49.8082C33.3205 49.4419 33.4469 49.1141 33.4469 47.1556V45.4849L32.4297 45.649C30.8961 45.8964 29.4348 46.0119 27.8386 46.0119C26.2425 46.0119 24.7811 45.8964 23.2475 45.649L22.2304 45.4849L22.2321 47.1637Z" fill="#554AF0"/>
</svg>
