<svg width="56" height="54" viewBox="0 0 56 54" fill="none" xmlns="http://www.w3.org/2000/svg">
<path fill-rule="evenodd" clip-rule="evenodd" d="M23.4381 3.25497C18.4531 4.06994 14.4928 7.40215 13.1543 11.908C12.7926 13.1257 12.7365 12.9989 14.6209 15.2195L14.8786 15.5232L15.1332 15.2149C17.697 12.1106 26.5609 7.11483 34.4369 4.33525C34.8939 4.17401 35.2412 4.00198 35.2086 3.95282C35.1257 3.82759 34.2095 3.55522 33.201 3.35584C31.9971 3.11798 24.7352 3.04297 23.4381 3.25497ZM5.8872 5.22545C3.52309 5.62828 3.55939 5.61696 3.35494 6.01691C3.10444 6.50683 8.02773 25.6688 8.55565 26.2585C8.72585 26.4487 11.1589 28.2389 13.9623 30.2365C18.7369 33.6388 19.0891 33.8687 19.5306 33.8709C20.1665 33.8739 20.6056 33.4802 20.6056 32.9072C20.6056 32.4671 20.6363 32.5072 17.2916 28.5839L15.652 26.6605L14.9904 26.5881C13.8467 26.4627 12.8818 25.8374 12.4603 24.9484C12.1042 24.1975 11.2905 19.3625 11.4571 18.9874C11.6275 18.6037 12.2264 18.3375 12.611 18.4747C13.1794 18.6774 13.2531 18.8831 13.7233 21.5814C14.218 24.4202 14.2964 24.6067 15.0504 24.7388C15.5018 24.8177 16.1049 24.4721 16.2124 24.0727C16.2602 23.8954 16.1422 22.8922 15.9197 21.5854C15.4865 19.0405 15.8586 19.697 12.7084 15.9218C9.93884 12.6028 10.0116 12.7543 9.23041 8.67317C8.43698 4.52748 8.65621 4.75369 5.8872 5.22545ZM47.6069 4.98984C47.2288 5.08184 47.072 5.63843 46.5552 8.72393C45.7908 13.2883 45.9523 12.9411 42.9354 16.5095C40.4132 19.4927 40.3599 19.5895 40.065 21.7174C39.6793 24.5015 39.7598 25.1112 40.5129 25.1112C41.3306 25.1112 41.4235 24.8944 41.9768 21.6924C42.3888 19.309 42.618 18.5838 43.0028 18.446C43.7189 18.1896 44.3155 18.6122 44.3155 19.3758C44.3155 19.8812 43.8075 23.0352 43.5654 24.0329C43.1003 25.9495 42.1396 26.9277 40.7219 26.9277H40.0972L39.1865 27.9161C37.4139 29.8398 35.7243 31.8817 35.6237 32.2216C35.3731 33.0681 35.8977 34.0207 36.4979 33.809C36.9162 33.6614 46.1672 27.2483 46.8637 26.623C47.1629 26.3545 47.4855 25.9406 47.5809 25.7031C48.0167 24.618 52.4614 6.25733 52.3456 6.02033C52.137 5.59313 51.7047 5.44589 49.8739 5.17843C48.0416 4.91087 47.9597 4.90403 47.6069 4.98984ZM34.8659 6.18648C31.9 7.31582 30.2239 7.99188 30.0779 8.11764C30.0274 8.16113 30.3 8.22738 30.6837 8.26478C34.7632 8.66249 38.8196 11.4616 40.4799 15.0244C40.6853 15.465 40.8861 15.8351 40.9261 15.847C41.0062 15.8705 43.1701 13.2588 43.1701 13.1386C43.1701 12.2905 41.9986 9.56187 41.1022 8.32205C40.3747 7.31592 37.9676 5.09199 37.6522 5.13462C37.6317 5.1374 36.3779 5.61076 34.8659 6.18648ZM24.5 10.7747C20.7584 12.7913 18.3801 14.4999 16.6916 16.3842L16.1335 17.0071L16.4759 17.4104C17.1993 18.2624 17.4191 18.8593 17.8162 21.0499C18.3404 23.9408 18.2901 24.7966 17.5514 25.558C17.3872 25.7274 17.5577 25.9584 19.744 28.5274C22.2484 31.4703 22.4267 31.7176 22.5218 32.3792C22.5796 32.7814 22.6102 32.8069 23.4041 33.1152C26.8062 34.4365 29.915 34.5138 32.5914 33.3438L33.5487 32.9253L33.5499 32.3574C33.5505 31.9883 33.6446 31.6019 33.8185 31.2535C34.0266 30.8366 36.7871 27.6301 38.149 26.2232C38.3619 26.0033 38.3608 25.99 38.0773 25.4218C37.7189 24.7036 37.719 24.5241 38.0791 21.811C38.4013 19.383 38.5221 18.9303 39.0319 18.2391L39.3776 17.7704L39.2025 17.14C38.471 14.5047 36.2619 12.0841 33.5113 10.9038C31.8259 10.1807 30.3426 9.93917 27.5926 9.94045L26.0463 9.9412L24.5 10.7747ZM21.8955 34.7477C21.817 34.836 21.7553 35.6531 21.7315 36.919C21.669 40.2339 21.1639 40.8183 17.4912 41.8244C10.5036 43.7386 7.89166 45.9132 7.89166 49.8167V50.9696H28.0068H48.122L48.0701 49.9278C47.9841 48.1983 47.4176 47.0654 45.8883 45.5649C43.9093 43.6232 40.7404 42.021 37.1089 41.1261C35.6078 40.7562 35.0286 40.4838 34.4318 39.8676C33.5996 39.0083 33.5038 38.714 33.4369 36.8116C33.3998 35.7555 33.3331 35.1111 33.2624 35.1259C33.1994 35.1391 32.7954 35.272 32.3647 35.4214C29.8973 36.2767 26.3368 36.1443 23.4149 35.0886C22.013 34.5821 22.0379 34.5877 21.8955 34.7477Z" fill="#554AF0"/>
</svg>
