<svg width="56" height="54" viewBox="0 0 56 54" fill="none" xmlns="http://www.w3.org/2000/svg">
<path fill-rule="evenodd" clip-rule="evenodd" d="M11.125 2.69341C10.9994 2.82348 10.8008 3.08677 10.6837 3.27862C10.5635 3.47551 10.2371 3.74637 9.93401 3.90082C9.07393 4.33883 9.07089 4.88191 9.92569 5.35008C10.2431 5.52386 10.5681 5.82592 10.7788 6.14269C11.3318 6.97396 11.9013 6.97848 12.3807 6.15519C12.5885 5.7985 12.8229 5.57629 13.1841 5.39389C14.1926 4.88422 14.1373 4.30364 13.0304 3.78083C12.8305 3.68638 12.5843 3.45629 12.4832 3.26948C12.214 2.77169 11.87 2.45702 11.595 2.45702C11.462 2.45702 11.2504 2.56334 11.125 2.69341ZM27.6162 5.41154C18.3557 6.40598 12.4304 12.9771 10.9063 23.9428C10.6674 25.6625 10.6289 30.1978 10.8409 31.665C12.771 45.0236 23.9999 54.1054 34.5468 50.8382C40.3841 49.03 45.6035 43.7075 48.0128 37.1063C50.8537 29.323 49.6486 18.94 45.1669 12.5861C41.4091 7.25827 34.9621 4.62282 27.6162 5.41154ZM5.4283 9.10626C5.23346 9.29621 4.9407 9.68863 4.77745 9.9784C4.53505 10.4088 4.35595 10.5675 3.79887 10.845C2.29367 11.5946 2.23532 12.4971 3.64878 13.1645C4.38091 13.5102 4.51302 13.6355 5.00119 14.4484C5.4491 15.1941 5.61763 15.3227 6.1474 15.3227C6.68166 15.3227 6.94059 15.1103 7.45574 14.2494C7.77571 13.7147 7.95638 13.5369 8.38676 13.3331C10.0148 12.5622 10.1511 11.6906 8.75812 10.9597C7.87195 10.4947 7.74007 10.374 7.36917 9.68779C6.82074 8.67339 6.09512 8.45601 5.4283 9.10626ZM23.2781 23.6778C26.1954 24.3751 27.6966 26.6133 26.6188 28.659C24.8869 31.9467 18.4669 31.9747 16.7171 28.7021C15.1053 25.6881 19.05 22.6673 23.2781 23.6778ZM39.9971 23.6211C43.6263 24.34 45.0625 27.5425 42.7245 29.7031C39.6697 32.5259 33.2972 30.9399 33.3001 27.3574C33.3024 24.7588 36.5614 22.9406 39.9971 23.6211ZM28.2971 32.6745C29.5411 33.5551 30.6897 33.5505 31.9386 32.6604C32.4291 32.3109 32.882 32.3403 33.1194 32.7371C33.5497 33.457 31.6932 34.5626 30.0896 34.5413C28.758 34.5237 27.054 33.6774 27.054 33.0336C27.054 32.3909 27.6522 32.2182 28.2971 32.6745ZM29.5541 38.5597C29.9233 38.7381 30.2092 38.7148 30.9891 38.4428C31.934 38.1132 33.0293 38.4928 35.0712 39.8578C36.4958 40.81 36.6085 41.1394 35.7702 41.9008C32.853 44.5502 27.711 44.6461 24.7084 42.107C23.5873 41.1589 23.6459 40.8749 25.1749 39.846C27.3654 38.3722 28.4853 38.0431 29.5541 38.5597ZM27.7348 40.5595C27.4678 40.8767 27.5106 41.1774 27.8633 41.4623C28.2365 41.7639 31.9609 41.7359 32.3792 41.4284C32.7353 41.1668 32.7644 40.7837 32.4506 40.4905C32.2416 40.2952 32.0759 40.2804 30.0978 40.2804H27.9698L27.7348 40.5595ZM48.9972 45.723C48.8319 45.8849 48.5564 46.265 48.3852 46.5673C48.1617 46.9621 47.9275 47.1978 47.5559 47.4024C46.5152 47.9753 46.3423 48.1136 46.2369 48.4566C46.0631 49.023 46.3399 49.4065 47.2643 49.88C47.9852 50.2492 48.0914 50.3485 48.4865 51.0222C49.1434 52.1421 50.0524 52.3792 50.5904 51.5711C51.4617 50.2623 51.5145 50.2059 52.1803 49.8753C53.6879 49.1267 53.6514 48.3209 52.0726 47.5039C51.5132 47.2143 51.3391 47.0516 51.0292 46.5289C50.3526 45.387 49.6318 45.1012 48.9972 45.723Z" fill="#554AF0"/>
</svg>
