<svg width="52" height="51" viewBox="0 0 52 51" fill="none" xmlns="http://www.w3.org/2000/svg">
<path fill-rule="evenodd" clip-rule="evenodd" d="M17.0898 0.171366C16.8417 0.278279 16.5566 0.484716 16.4562 0.630105C16.2988 0.858088 13.0626 9.03781 13.0564 9.22352C13.054 9.29473 14.6872 10.1581 14.7291 10.1078C14.8007 10.0218 19.3262 2.53319 19.4847 2.23841C20.1892 0.928064 18.5724 -0.46744 17.0898 0.171366ZM22.2932 3.13916C21.8033 3.42265 21.7672 3.49314 19.869 7.87296C18.903 10.102 18.0957 11.9525 18.075 11.9851C18.0346 12.049 19.644 12.9459 19.6909 12.8855C19.7065 12.8655 20.8791 11.1203 22.2968 9.00723C25.1819 4.70683 25.2047 4.65738 24.7092 3.77961C24.2664 2.995 23.084 2.68155 22.2932 3.13916ZM28.0238 5.93007C27.4301 6.09392 27.1457 6.54835 25.1058 10.5919C23.9956 12.7928 23.0666 14.6254 23.0414 14.6645C22.9921 14.7409 24.4058 15.5707 24.5745 15.5643C24.6606 15.5611 28.0427 11.1059 29.7307 8.77217C30.5739 7.6066 30.4039 6.59329 29.2745 6.05175C28.7623 5.80622 28.548 5.78539 28.0238 5.93007ZM33.0888 9.00928C32.4913 9.29001 32.7273 8.93285 30.1476 13.4592L27.8703 17.4552L28.674 17.9047C29.1161 18.1518 29.5164 18.3419 29.5637 18.3268C29.8264 18.2429 35.5393 11.1191 35.6034 10.7955C35.872 9.43632 34.4023 8.39223 33.0888 9.00928ZM10.1692 10.2222C9.38061 10.5704 8.96858 11.83 8.86944 14.1957C8.46585 23.8322 19.1536 29.4146 27.4132 23.8812C29.278 22.6319 30.0094 21.6265 29.7201 20.71C29.5481 20.1651 30.0977 20.4958 20.3496 15.073C10.8399 9.78291 10.9958 9.8572 10.1692 10.2222ZM9.23876 27.0874C4.35795 36.0978 0.674504 44.2468 0.240318 46.9949C0.142691 47.6123 0.227345 47.609 1.04555 46.9628C3.45033 45.0635 9.09508 38.089 15.0165 29.7005C16.6636 27.3672 16.7269 27.2589 16.4905 27.1758C16.3546 27.1281 15.9643 26.9909 15.623 26.871C14.2064 26.3733 12.6586 25.474 11.4729 24.4597L10.9189 23.9856L9.23876 27.0874ZM35.6015 25.749C34.6138 27.6979 33.119 28.5552 29.3793 29.3176C27.8562 29.6281 26.9664 29.8857 26.3427 30.1966L25.9737 30.3805L26.4062 30.4737C28.1407 30.8479 33.1883 30.0949 36.8882 28.9101C37.5989 28.6824 38.2857 28.4962 38.4142 28.4962C38.8047 28.4962 39.2177 28.879 39.2177 29.2409C39.2177 29.7835 38.8778 29.999 37.2254 30.5039C32.2942 32.0108 27.9254 32.5221 25.0082 31.9336C24.596 31.8505 24.2509 31.7933 24.2412 31.8066C24.2316 31.8199 23.9655 32.288 23.6499 32.8466L23.0763 33.8625L29.7685 33.7951C33.4493 33.758 38.2799 33.6978 40.5033 33.6614L44.5457 33.5952L43.8008 32.9733C42.1786 31.6189 41.7024 31.0054 41.1774 29.5936C40.3394 27.3404 39.5565 26.4686 37.4923 25.4896C36.8146 25.1681 36.2078 24.9055 36.1441 24.906C36.0805 24.9066 35.8363 25.2859 35.6015 25.749ZM34.5 35.3187L21.4035 35.4401L20.8236 35.7484C19.4218 36.4935 19.1377 38.0009 19.8737 40.7891C20.7766 44.2094 24.2369 49.4084 25.8912 49.8301C26.5163 49.9893 44.6473 50.1367 45.2932 49.9877C47.307 49.5231 50.898 43.8333 51.6045 39.9877C52.2304 36.5795 51.2887 35.14 48.4615 35.1837C47.9858 35.1911 41.7032 35.2518 34.5 35.3187Z" fill="#554AF0"/>
</svg>
