<svg width="56" height="54" viewBox="0 0 56 54" fill="none" xmlns="http://www.w3.org/2000/svg">
<path fill-rule="evenodd" clip-rule="evenodd" d="M11.3355 2.14586C10.3718 2.57654 11.3948 9.83317 12.9897 13.8788C13.6331 15.5112 21.2234 31.0807 21.3344 30.9958C21.3822 30.9594 22.6859 29.1497 24.2318 26.9743L27.0425 23.0191L26.3852 22.0868C21.3421 14.9336 12.2121 2.18398 12.0905 2.12484C11.8783 2.02171 11.5955 2.02953 11.3355 2.14586ZM43.559 2.12054C43.4766 2.16071 38.0712 9.6928 31.5469 18.8587C21.9867 32.2895 19.6381 35.5206 19.4452 35.5075C19.3136 35.4986 18.7218 35.4131 18.1302 35.3176C14.1599 34.6765 9.85864 37.1775 8.52923 40.9C8.14676 41.971 8.11052 44.41 8.46377 45.2987C8.82352 46.2037 9.49889 47.2127 10.0878 47.7252C10.6028 48.1732 10.614 48.1968 10.398 48.3796C9.98039 48.7331 8.86258 48.9691 7.30281 49.0331C5.62283 49.1021 5.18395 49.2712 5.02761 49.9098C4.8843 50.4946 5.22427 50.8848 6.15909 51.2086C10.3202 52.6501 14.0911 52.2296 16.8743 50.0141C17.3958 49.5988 17.9825 49.2417 18.3679 49.105C22.9658 47.4733 25.4026 42.3017 23.2942 38.65L22.9682 38.0856L23.2783 37.6844C25.3187 35.0443 28.1669 33.5904 31.6147 33.4287C32.6081 33.3822 33.1146 33.3172 33.2358 33.2205C33.4209 33.073 41.9664 15.6018 42.5559 14.1655C43.8476 11.0187 44.5563 7.49373 44.5867 4.06585C44.601 2.44683 44.5846 2.31379 44.3544 2.18417C44.0826 2.031 43.7907 2.00774 43.559 2.12054ZM30.7087 27.647C32.3337 28.406 32.2565 30.2078 30.5741 30.7931C28.3748 31.5582 26.3065 29.6346 27.7077 28.1274C28.2961 27.4945 29.8498 27.2459 30.7087 27.647ZM28.8992 28.6769C28.2965 29.1385 28.7037 29.9032 29.5524 29.9032C30.4579 29.9032 30.865 29.0619 30.1639 28.6396C29.7179 28.3708 29.2819 28.3837 28.8992 28.6769ZM34.3556 33.8166C34.0278 34.2186 33.5807 34.3353 32.0718 34.4129C31.266 34.4543 30.2969 34.5572 29.9181 34.6416L29.2295 34.7949L30.2158 35.5525C30.7582 35.9692 31.5381 36.6946 31.9488 37.1645L32.6956 38.0188L32.3585 38.6638C30.3061 42.5906 32.8447 47.7145 37.5831 49.2092C37.8654 49.2982 38.3111 49.5699 38.5804 49.8167C41.0445 52.0764 45.0262 52.6337 49.1991 51.3032C50.7023 50.8238 51.1185 50.0737 50.2493 49.4102C49.8417 49.099 49.8089 49.0925 48.3552 49.0333C46.7919 48.9697 45.6626 48.7353 45.2541 48.3897C45.0539 48.2202 45.0714 48.1828 45.5617 47.7318C48.5934 44.943 47.9955 39.9869 44.2831 37.1339C41.9465 35.3382 39.4078 34.8288 36.2859 35.5291C36.0424 35.5837 35.9315 35.48 35.3502 34.6541C34.603 33.5924 34.5647 33.5602 34.3556 33.8166ZM18.1614 37.5855C21.0528 38.3401 22.0306 41.8959 20.1213 44.7122C17.6678 48.3312 12.5258 48.3202 11.2924 44.6934C10.003 40.9017 14.2055 36.5531 18.1614 37.5855ZM40.6094 37.7999C44.5397 39.2818 45.9252 44.4064 42.9857 46.5892C39.0925 49.4803 32.9874 44.5059 34.838 39.9505C35.7234 37.7707 38.1422 36.8695 40.6094 37.7999Z" fill="#554AF0"/>
</svg>
