<svg width="56" height="54" viewBox="0 0 56 54" fill="none" xmlns="http://www.w3.org/2000/svg">
<g clip-path="url(#clip0_880_8468)">
<path fill-rule="evenodd" clip-rule="evenodd" d="M13.8003 2.62481C12.5673 2.81337 12.007 3.22054 12.1789 3.80321C12.222 3.94934 13.2244 5.3956 14.4064 7.017C15.5884 8.63841 17.7284 11.5778 19.1618 13.5489C20.5952 15.52 22.5851 18.2512 23.5839 19.6183C24.5828 20.9854 26.4953 23.6126 27.8339 25.4565C30.5101 29.1432 30.4261 29.0436 30.9565 29.1491C31.2809 29.2135 31.4036 29.1621 31.8819 28.7618C32.619 28.1449 33.6198 27.6374 34.5829 27.3921C35.0179 27.2813 35.3741 27.1517 35.3745 27.1042C35.3749 27.0566 34.1133 25.2878 32.5709 23.1735C28.9455 18.2037 25.4708 13.4436 22.9291 9.96502C21.8141 8.43899 20.504 6.64417 20.0178 5.97653C18.0599 3.28794 16.1604 2.26388 13.8003 2.62481ZM11.1549 7.16891C10.8697 7.49042 10.851 7.90372 11.1037 8.29182C11.9494 9.59045 16.1182 15.5578 16.2906 15.7165C16.8055 16.1908 17.6902 15.7172 17.6839 14.9706C17.6814 14.6642 17.4405 14.2603 16.4556 12.912C13.5542 8.9398 12.1116 7.03885 11.9482 6.9725C11.6264 6.84174 11.3943 6.8992 11.1549 7.16891ZM4.80532 19.5355C4.26037 19.8276 4.1003 20.585 4.50287 20.9675C4.74035 21.193 12.916 23.7802 13.3913 23.7802C14.1349 23.7802 14.3677 22.6756 13.7018 22.3064C13.5249 22.2084 5.1985 19.3829 5.10372 19.3888C5.08855 19.3898 4.95425 19.4558 4.80532 19.5355ZM0.801132 22.4579C0.0877094 23.2133 1.01132 25.8184 2.51503 27.2924C3.50775 28.2656 4.16822 28.5388 9.30204 30.0993C23.8138 34.5104 28.8658 36.0347 28.9751 36.0349C29.0574 36.0352 29.0853 35.7491 29.0607 35.1548C29.0106 33.9413 29.2007 32.9009 29.6659 31.8432C29.8828 31.35 30.0308 30.9155 29.9949 30.8774C29.959 30.8394 27.6541 30.1173 24.8729 29.2729C22.0918 28.4285 17.4332 27.0073 14.5207 26.1147C-0.0863338 21.6381 1.24126 21.9919 0.801132 22.4579ZM35.0477 29.1498C31.5071 30.205 29.6982 34.678 31.4975 37.9288C33.5549 41.646 38.6669 41.9526 40.9029 38.4929C43.5636 34.3763 40.9506 28.9336 36.3422 28.9929C35.9005 28.9987 35.3179 29.0692 35.0477 29.1498ZM38.0546 31.3285C40.2342 32.5099 40.8227 35.5727 39.2585 37.5938C37.9752 39.252 35.2986 39.3393 33.8602 37.7698C31.955 35.6911 32.6767 32.1091 35.1931 31.1543C36.002 30.8475 37.3145 30.9274 38.0546 31.3285ZM35.4655 33.174C34.4058 33.8595 34.1553 34.9528 34.7901 36.1216C35.7496 37.888 38.3103 37.0206 38.3209 34.9257C38.3285 33.4157 36.6672 32.3965 35.4655 33.174ZM41.4714 40.489C41.0988 40.7032 40.9683 41.2565 41.2013 41.6332C41.6167 42.3041 43.5924 44.0373 44.4182 44.4548L45.2566 44.8787H47.3312H49.4057L50.1154 45.2368C51.493 45.9319 51.8904 46.5296 52.7922 49.2628C53.111 50.2292 53.4689 51.1062 53.606 51.2571C54.1979 51.9082 55.138 51.3849 55.138 50.4045C55.138 49.9462 53.787 46.168 53.3873 45.5085C52.7177 44.4038 51.6417 43.5468 50.3515 43.0909C49.7305 42.8714 49.456 42.8497 47.6764 42.8799C45.2744 42.9205 45.0937 42.8528 43.455 41.2981C42.3443 40.2442 42.0826 40.1375 41.4714 40.489Z" fill="#554AF0"/>
</g>
<defs>
<clipPath id="clip0_880_8468">
<rect width="55" height="53.0702" fill="white" transform="translate(0.34668 0.550049)"/>
</clipPath>
</defs>
</svg>
