<svg width="56" height="54" viewBox="0 0 56 54" fill="none" xmlns="http://www.w3.org/2000/svg">
<g clip-path="url(#clip0_880_8465)">
<path fill-rule="evenodd" clip-rule="evenodd" d="M23.2834 6.68646C22.509 7.51639 22.6894 9.32155 23.7005 10.8599C24.1291 11.5122 24.4587 12.07 24.4327 12.0996C24.4065 12.129 23.5724 12.3894 22.5788 12.6778C21.5852 12.9665 20.1911 13.5461 19.4807 13.9656C17.7297 15.0005 15.4288 16.0164 14.603 16.1197C13.2522 16.2885 13.4174 17.6835 14.8768 18.4323C15.5812 18.7936 17.1812 18.4578 17.6302 17.8543C17.9464 17.4294 19.2794 16.6045 20.1616 16.2879C20.6578 16.1095 20.9206 15.8115 21.1882 15.1236C21.7402 13.7046 22.339 13.5403 24.0591 14.3367C25.2388 14.8831 25.5139 14.935 25.6641 14.6396C25.946 14.0854 27.9279 13.0467 29.3607 12.7023C30.8895 12.3349 33.5297 12.5344 35.6929 13.1807C36.6479 13.4663 37.2351 13.5274 37.4332 13.3626C39.0276 12.0341 41.6226 12.8207 44.0527 15.3692L45.5773 16.9682L48.6892 15.889C52.6316 14.5217 53.3048 13.8108 53.0253 11.3096C52.9004 10.1921 51.5926 6.71048 50.9475 5.779C50.0982 4.55218 48.3606 4.58398 46.6422 5.85817C46.1887 6.19468 44.7519 6.91888 43.4496 7.46791C42.1473 8.01694 39.9822 9.00664 38.6383 9.66738C35.5022 11.2093 32.7107 11.6749 30.0849 11.0945C27.8839 10.6081 27.5718 10.4167 25.5113 8.29349C23.6636 6.38925 23.602 6.34495 23.2834 6.68646ZM29.6751 14.2274C29.1053 14.3706 29.1031 14.3789 29.2855 15.6201L29.4689 16.8688L29.0695 15.8606C28.5813 14.6279 28.4023 14.5532 27.3004 15.1232C26.1924 15.6964 26.1584 15.9847 27.1485 16.4161C27.5859 16.6069 27.9524 16.8525 27.9627 16.962C27.997 17.3259 26.7587 17.0187 24.8107 16.1805C22.1586 15.0392 22.0222 15.1149 22.0271 17.726L22.0295 19.0025L21.7156 18.2684C21.4174 17.5715 21.3612 17.5456 20.6115 17.7619C19.4917 18.0849 19.4837 18.1287 20.049 20.9321C20.802 24.668 20.1914 24.0657 19.3093 20.2027C18.9251 18.5189 18.9239 18.5171 18.5391 18.9496C18.2608 19.2622 18.1751 19.6307 18.2306 20.2764L18.3074 21.1701L17.956 20.3873C17.6165 19.6309 17.5784 19.6131 16.825 19.8618C13.1304 21.0811 13.0161 24.4202 16.475 30.0758C17.2786 31.3897 18.1158 32.707 18.3353 33.0034C19.2939 34.2959 17.8876 33.6339 16.3575 32.0725C15.7682 31.4712 15.0599 30.5338 14.7835 29.9895C13.9391 28.3268 13.7589 28.1901 13.0552 28.681C11.8232 29.5403 10.0635 29.5046 6.91605 28.5563C1.70864 26.9874 0.232135 27.905 2.24951 31.4565C4.05781 34.6399 9.11592 40.1359 13.9549 44.1756C15.794 45.7109 16.0474 45.7576 17.188 44.7735C17.6913 44.3395 18.8416 43.3681 19.7443 42.6157C21.7267 40.9624 21.6277 41.1134 21.2712 40.2882C20.1928 37.7914 23.0023 35.8598 27.8341 35.776L29.9588 35.7394L30.363 34.9563C31.1051 33.5189 31.9671 33.0147 34.594 32.4823C35.9024 32.2169 37.736 31.7799 38.6687 31.5107C40.6422 30.9413 42.4082 31.1031 43.7213 31.9741C44.2317 32.3126 44.8169 32.4616 45.516 32.4305L46.5532 32.3842L46.764 31.0471C47.3191 27.5276 46.6326 21.906 45.3297 19.3019C43.3413 15.3277 39.2828 12.9644 37.6309 14.8188C37.2675 15.227 37.1754 15.2331 36.3979 14.9021C34.7737 14.2103 31.1786 13.8496 29.6751 14.2274ZM31.8981 19.8727C32.7164 21.4509 33.0106 24.6722 32.5168 26.6443L32.2326 27.7795L32.0428 25.9687C31.8193 23.8367 31.1666 21.2305 30.5451 19.9898C30.14 19.1805 30.1267 19.0838 30.3866 18.8353C30.8918 18.3521 31.2301 18.5843 31.8981 19.8727ZM28.4038 21.8902C28.4993 23.7387 28.6613 24.3572 29.3087 25.3439C30.0251 26.4361 30.0493 26.6329 29.4264 26.3003C28.3331 25.7164 27.173 22.4282 27.4898 20.8109C27.6502 19.9921 28.3482 20.8163 28.4038 21.8902ZM38.5627 32.9987C38.1104 33.173 36.6046 33.5586 35.2167 33.856C32.4675 34.4447 31.9014 34.7647 31.198 36.1269L30.7685 36.9593L28.0978 37.1291C23.5628 37.4176 21.3093 38.7419 22.677 40.3149C22.908 40.5805 22.965 40.7814 22.8436 40.9022C22.4187 41.3249 22.7829 42.707 23.34 42.7853C28.6363 43.5302 31.6616 44.1783 31.6991 44.5762C31.7085 44.6765 30.9058 44.9749 29.9151 45.2395C27.7171 45.8265 27.1654 46.2083 27.0482 47.2241C26.9997 47.6448 27.0185 48.0577 27.0901 48.1416C27.1616 48.2258 29.0646 47.9715 31.3188 47.5769C35.8706 46.7801 36.3919 46.5886 41.2265 43.9346C44.7522 41.9992 45.5011 41.8615 49.2202 42.4635C53.4856 43.154 54.0861 42.7457 53.8964 39.2829C53.7567 36.7335 52.9146 34.218 51.8727 33.2366C51.4728 32.86 51.3075 32.8715 49.114 33.4252C45.9306 34.2288 44.6593 34.2032 43.0568 33.3031C41.6493 32.5129 40.098 32.408 38.5627 32.9987Z" fill="#554AF0"/>
</g>
<defs>
<clipPath id="clip0_880_8465">
<rect width="55" height="53.0702" fill="white" transform="translate(0.34668 0.550049)"/>
</clipPath>
</defs>
</svg>
