<svg width="56" height="54" viewBox="0 0 56 54" fill="none" xmlns="http://www.w3.org/2000/svg">
<g clip-path="url(#clip0_880_8462)">
<path fill-rule="evenodd" clip-rule="evenodd" d="M30.405 3.78542C25.2203 4.14152 21.743 5.44885 19.1826 8.00438C17.5926 9.59142 17.6628 9.8302 19.3969 8.73383C21.8177 7.20336 24.6293 6.1808 27.5558 5.76629C29.3684 5.50968 34.729 5.98716 37.1663 6.62252C41.3164 7.70424 41.7164 7.62345 39.5027 6.15017C37.0204 4.49797 33.4689 3.57499 30.405 3.78542ZM28.4856 5.98926C24.39 6.415 18.2579 9.01088 16.4449 11.0865C15.7389 11.8948 15.9027 11.9616 17.5584 11.5408C19.1628 11.133 21.9362 10.8807 23.5689 10.9941C24.3341 11.0473 24.7755 11.1109 24.5496 11.1355C24.3238 11.16 23.3669 11.2501 22.4232 11.3358C20.7822 11.4849 18.7261 11.894 19.1928 11.9787C19.315 12.0009 20.3048 11.9667 21.3922 11.9027C24.0426 11.7465 24.8315 11.8985 22.6565 12.1461C19.7814 12.4733 15.7685 13.5111 15.6896 13.9477C15.6721 14.0447 15.8225 14.0893 16.0239 14.0472C19.5953 13.2987 27.3733 13.6024 31.2357 14.641C35.3474 15.7469 38.0807 17.467 41.0809 20.8368C46.0911 26.4645 48.2681 27.6006 50.6593 25.8357C52.0221 24.8298 52.2933 22.5062 51.1896 21.2934C50.7805 20.844 50.78 20.8474 51.0572 22.0511C51.5573 24.2227 50.619 25.6574 48.843 25.4371C47.4245 25.2611 46.2061 24.2447 42.7365 20.3426C39.7725 17.0089 38.1575 15.7139 35.2428 14.3332C33.955 13.7233 34.5002 13.8105 36.0536 14.463C38.3791 15.4397 39.6639 16.4343 41.8529 18.9527C42.9729 20.2413 44.3213 21.6097 44.8493 21.9936C46.5571 23.2357 46.7512 23.2164 46.2581 21.8531C46.0187 21.1907 46.0278 21.06 46.3348 20.7394C48.0433 18.9545 46.5392 13.8055 43.3874 10.652C40.0864 7.34889 33.9319 5.42306 28.4856 5.98926ZM37.1236 10.6044C39.9629 11.2567 42.4908 12.3678 43.6498 13.4729C43.9056 13.717 43.783 13.6855 43.1689 13.3496C39.9436 11.5855 32.839 9.95562 28.095 9.89161C25.596 9.85778 25.1957 9.79671 26.5048 9.64875C28.7607 9.39377 33.8458 9.85154 37.1236 10.6044ZM25.7113 11.1112C25.5671 11.1436 25.3457 11.1162 25.2191 11.0502C25.0927 10.9844 25.2106 10.958 25.4813 10.9915C25.752 11.0251 25.8555 11.079 25.7113 11.1112ZM34.272 12.1628C34.196 12.2134 34.025 12.1987 33.8923 12.13C33.7454 12.0541 33.7996 12.0179 34.0305 12.0379C34.2393 12.056 34.3479 12.1122 34.272 12.1628ZM37.9039 13.0366C41.5518 14.2219 45.1885 17.0682 45.3991 18.9029C45.5031 19.8089 45.3671 19.9235 45.0166 19.2253C43.563 16.3299 40.4339 14.1559 35.4579 12.5845L34.6011 12.314L35.3914 12.3955C35.8261 12.4402 36.9568 12.7288 37.9039 13.0366ZM34.1813 13.7794C34.1054 13.83 33.9343 13.8153 33.8016 13.7466C33.6547 13.6707 33.709 13.6345 33.9398 13.6545C34.1487 13.6726 34.2573 13.7288 34.1813 13.7794ZM16.6128 12.3284C16.2224 12.4261 15.9421 12.5537 15.99 12.612C16.0378 12.6703 16.4898 12.607 16.9947 12.4714C18.0438 12.1897 17.6924 12.0581 16.6128 12.3284ZM20.8913 14.1199C17.5518 14.1491 15.1516 14.6981 15.0133 15.4645C14.9793 15.6526 14.824 15.7905 14.6683 15.7712C14.0289 15.6918 9.34582 21.2442 7.90103 23.7944C5.64728 27.7731 4.44729 31.0195 4.31056 33.5091C4.02026 38.7944 6.24446 43.44 10.0158 45.4254L11.4952 46.2042L10.7353 46.2973C8.49999 46.5711 7.85328 49.9267 9.78123 51.2483L10.4269 51.6908L10.0188 52.3637C9.49359 53.2293 9.44997 54.3894 9.90347 55.4291C10.4323 56.6413 10.9823 57.0013 12.6194 57.2063C15.8793 57.6149 19.5236 55.493 22.0829 51.6966C23.4452 49.6758 23.9444 49.8495 22.6516 51.8943C19.6889 56.5803 16.3758 58.3649 12.1676 57.5408C10.9394 57.3003 10.6599 57.2888 10.8207 57.4855C10.9492 57.6429 11.8168 57.8547 13.1914 58.0645C18.2314 58.8333 21.5758 56.881 23.9376 51.7912C24.6776 50.196 24.7169 50.1501 25.776 49.6334C28.094 48.5028 31.0451 44.8287 31.4538 42.5648C31.5737 41.9008 31.6629 41.8025 32.3513 41.5744C33.8689 41.0721 34.7051 39.639 34.5384 37.8259C34.4003 36.3263 32.6607 31.5688 32.2307 31.5154C32.1477 31.5051 31.3788 31.9482 30.5218 32.5001C27.4087 34.5052 25.2705 34.5058 25.0446 32.5016C25.0003 32.1072 24.8428 31.9321 24.4249 31.8117C23.9621 31.6785 23.8627 31.5403 23.8545 31.0174C23.8489 30.6695 23.8161 30.474 23.7819 30.5836C23.6231 31.0897 23.1047 30.8752 22.8783 30.2099C22.6157 29.4383 22.2052 29.3038 20.9824 29.5887C19.8384 29.8554 19.7185 29.533 20.1248 27.2831L20.4714 25.3635L19.7714 24.5027C18.9585 23.503 17.9038 20.6342 18.0505 19.8216L18.1502 19.2695L18.9979 20.0811C20.2828 21.3111 22.1454 22.2033 25.6776 23.2809C31.4787 25.0507 34.5036 26.7006 37.1262 29.5253C40.2945 32.938 40.7523 34.4165 40.3215 39.8445C40.2386 40.8902 40.2673 41.0368 40.4946 40.7273C40.857 40.2342 41.3589 35.2875 41.1971 33.8035C40.5643 27.994 36.2241 24.5907 25.6892 21.6427C24.2234 21.2326 23.1264 20.8798 23.2517 20.859C23.5711 20.8058 28.744 22.1796 30.1129 22.6811C31.9184 23.3425 34.6932 24.5124 38.9616 26.4115C41.1453 27.3831 42.9946 28.1362 43.071 28.0853C43.365 27.8893 40.5944 24.9047 38.6511 23.3237C35.6506 20.8828 30.993 18.9983 24.5842 17.6324L22.0647 17.0956L23.8403 17.2939C26.5047 17.5916 31.4941 19.1178 34.7414 20.6285C39.0395 22.6283 41.6723 25.0094 44.0926 29.086C45.7806 31.9287 45.9825 31.8244 45.0672 28.5829C42.4864 19.4428 33.4062 14.0106 20.8913 14.1199ZM15.6098 16.6194C15.5926 16.7148 15.4209 16.6712 15.2249 16.5217C15.0303 16.3733 14.8825 16.1886 14.8965 16.1113C14.9105 16.034 15.0837 16.0779 15.2814 16.209C15.4791 16.34 15.6269 16.5246 15.6098 16.6194ZM24.0588 18.5919C25.2578 18.8484 26.2313 19.0991 26.2224 19.1486C26.196 19.2947 21.7497 18.4427 20.192 17.9928L18.7574 17.5786L20.3181 17.8518C21.1765 18.0021 22.8599 18.3352 24.0588 18.5919ZM27.3228 19.4399C27.2469 19.4906 27.0758 19.4759 26.9431 19.4071C26.7962 19.3312 26.8504 19.2951 27.0813 19.315C27.2902 19.3332 27.3988 19.3893 27.3228 19.4399ZM24.8643 19.3939C27.3082 19.882 29.7156 20.6191 31.1633 21.3225C32.1139 21.7845 31.6293 21.7341 30.1755 21.2197C29.5513 20.9988 27.981 20.5578 26.6861 20.2396C21.4379 18.9499 20.5304 18.5287 24.8643 19.3939ZM31.1061 20.5246C32.4192 21.0234 33.8838 21.7519 33.5068 21.7187C33.3979 21.709 32.1261 21.2291 30.6805 20.6522C28.1212 19.6305 28.4742 19.5247 31.1061 20.5246ZM17.4748 18.8124C17.3629 18.8592 17.207 19.0117 17.128 19.1512C17.0364 19.3134 16.9795 19.2338 16.9697 18.9302C16.9571 18.5318 17.0128 18.4774 17.3165 18.5912C17.5155 18.666 17.5869 18.7655 17.4748 18.8124ZM16.2479 21.5313C14.145 27.19 12.6524 33.3839 13.4687 33.0639C13.5742 33.0224 13.6298 33.1727 13.592 33.3977C13.036 36.7102 13.4078 40.0995 14.6728 43.2472C14.9844 44.0226 15.1521 44.591 15.0454 44.5105C14.39 44.0155 13.2807 39.9474 12.9266 36.74C12.5191 33.0508 13.7024 27.3122 16.1854 20.9355C16.5175 20.0825 16.8082 19.489 16.8314 19.6161C16.8545 19.7434 16.592 20.6053 16.2479 21.5313ZM27.6578 20.9285C27.5819 20.9791 27.4108 20.9644 27.2781 20.8957C27.1312 20.8198 27.1855 20.7836 27.4163 20.8036C27.6252 20.8217 27.7338 20.8779 27.6578 20.9285ZM28.807 21.2519C28.731 21.3026 28.56 21.2878 28.4273 21.2191C28.2804 21.1432 28.3346 21.1071 28.5655 21.127C28.7743 21.1451 28.8829 21.2013 28.807 21.2519ZM32.5152 21.8928C32.4392 21.9435 32.2682 21.9288 32.1355 21.86C31.9886 21.7841 32.0428 21.748 32.2737 21.7679C32.4826 21.7861 32.5912 21.8422 32.5152 21.8928ZM33.2707 22.1674C33.1947 22.2181 33.0237 22.2034 32.891 22.1346C32.7441 22.0587 32.7983 22.0226 33.0292 22.0425C33.238 22.0607 33.3466 22.1168 33.2707 22.1674ZM34.0261 22.442C33.9502 22.4927 33.7791 22.478 33.6464 22.4092C33.4995 22.3333 33.5538 22.2972 33.7846 22.3171C33.9935 22.3353 34.1021 22.3914 34.0261 22.442ZM12.5122 22.2276C11.1069 26.5433 10.8166 27.5612 10.5158 29.2275C9.50641 34.8181 10.441 39.5982 13.3732 43.8415C14.8294 45.9488 15.0947 47.895 14.0734 48.978C13.8526 49.2123 13.7839 49.2417 13.9104 49.0482C14.7884 47.7043 14.2524 45.9734 12.338 43.9695C9.03314 40.5104 7.70385 36.6166 8.50127 32.7316L8.70057 31.7615L8.65713 32.9318C8.50344 37.0759 9.41655 40.2126 11.434 42.4722C12.3629 43.5125 12.6627 43.4985 12.0114 42.4451C9.64294 38.6143 9.26568 35.5907 10.3842 29.4067C10.8096 27.0548 11.1332 25.1468 11.1032 25.1667C11.0733 25.1867 10.8363 25.6598 10.5765 26.2179C10.027 27.3992 10.0355 26.8795 10.5875 25.5383C11.4325 23.4857 13.0755 19.9212 13.1403 20.0003C13.1784 20.0468 12.8958 21.0493 12.5122 22.2276ZM22.5615 22.7044C22.5454 22.7937 22.4543 23.0063 22.3591 23.1767C22.2009 23.4602 22.2179 23.4607 22.5594 23.1818C22.9871 22.8328 23.0727 22.6018 22.7877 22.5664C22.6794 22.553 22.5776 22.615 22.5615 22.7044ZM21.7597 28.5084C21.2898 28.7216 21.0119 29.2193 21.3401 29.26C21.4281 29.2709 21.7395 29.0653 22.0324 28.8032C22.6174 28.2797 22.5128 28.1665 21.7597 28.5084ZM9.84268 28.1501C9.76251 28.3143 9.74713 28.1699 9.80861 27.8294C9.8701 27.4888 9.93582 27.3544 9.95447 27.5309C9.97332 27.7074 9.92304 27.9859 9.84268 28.1501ZM9.45557 29.1839C9.3745 29.3498 9.3481 29.2463 9.39686 28.9539C9.44563 28.6616 9.5118 28.5258 9.54411 28.6523C9.57643 28.7787 9.53665 29.018 9.45557 29.1839ZM14.4932 30.2533C14.405 30.3865 14.3659 30.3388 14.3937 30.1315C14.4189 29.944 14.4842 29.8454 14.5389 29.9122C14.5937 29.979 14.5732 30.1326 14.4932 30.2533ZM13.919 32.3637C13.8184 32.6745 13.8293 32.4114 13.9435 31.7789C14.0576 31.1465 14.1402 30.8923 14.1266 31.2138C14.1132 31.5354 14.0198 32.053 13.919 32.3637ZM23.946 36.3649C26.222 40.3036 26.5335 42.1342 25.6759 46.5286L25.2968 48.4712L25.4971 46.5064C25.7419 44.1062 25.6544 42.0663 25.2299 40.2804C24.8508 38.6849 24.0748 37.015 23.6905 36.9673C23.4515 36.9377 22.0303 33.3771 22.1155 33.0221C22.1333 32.948 22.2484 33.1433 22.3712 33.4564C22.494 33.7696 23.2026 35.0784 23.946 36.3649ZM32.3295 38.865C32.6337 39.7709 32.5812 40.2276 32.1261 40.6391C31.8216 40.9144 31.7882 40.8466 31.7396 39.8573C31.7103 39.2613 31.5561 38.3098 31.3966 37.7429L31.1068 36.7117L31.5893 37.4047C31.8548 37.7858 32.1877 38.443 32.3295 38.865ZM20.6852 38.1175C21.1206 40.9748 21.0633 42.6057 20.3958 46.3257C19.701 50.1988 19.0788 51.7244 19.4217 48.7138C19.624 46.9379 19.4307 45.1 18.629 41.1759C18.3836 39.9756 18.2402 38.859 18.31 38.6946C18.4653 38.3291 19.581 42.7864 19.7475 44.4366C19.8135 45.0914 19.9089 45.673 19.9598 45.729C20.2852 46.0888 20.5195 39.8564 20.2893 36.9524C20.2093 35.9411 20.4708 36.711 20.6852 38.1175ZM24.3572 40.08C24.3682 40.3549 24.2164 39.9504 24.0199 39.1816C23.8236 38.4128 23.6776 37.7435 23.6955 37.6944C23.7609 37.5151 24.3379 39.5951 24.3572 40.08ZM27.3224 45.8884C26.7022 47.2951 26.4348 47.4626 26.9821 46.1012C27.1757 45.6197 27.5959 44.1733 27.9157 42.8868L28.4971 40.5481L28.1869 42.5896C27.9735 43.9935 27.7035 45.0239 27.3224 45.8884ZM24.4145 41.0704C24.3262 41.2036 24.2872 41.1559 24.3149 40.9486C24.3401 40.7611 24.4054 40.6625 24.4602 40.7293C24.5149 40.7961 24.4944 40.9497 24.4145 41.0704ZM28.1443 45.3358L27.8356 45.8922L28.041 45.3072C28.1542 44.9856 28.3889 44.038 28.5627 43.2015L28.8785 41.6806L28.6658 43.23C28.5488 44.0822 28.3141 45.0298 28.1443 45.3358ZM16.5769 47.8756C17.4583 50.3286 17.495 51.4608 16.7551 53.3803C16.4624 54.1398 16.2913 54.8148 16.3746 54.8803C16.5338 55.0053 15.2115 55.9062 14.2869 56.3028C12.1784 57.2073 9.94581 55.1712 10.5138 52.8614L10.7468 51.9143L11.7114 51.9108C14.6334 51.9003 16.5114 49.5423 15.8524 46.7117C15.5095 45.2389 15.7932 45.6949 16.5769 47.8756ZM24.094 48.2216C23.893 48.8991 23.626 49.494 23.5004 49.5432C23.3498 49.6023 23.3452 49.4563 23.4871 49.1141C23.6054 48.8287 23.8373 48.191 24.0024 47.6969C24.4457 46.3707 24.5186 46.7887 24.094 48.2216ZM12.8052 47.7591C12.7529 48.0487 12.698 48.0571 12.3906 47.8225C11.6278 47.2408 10.7851 48.1739 11.2459 49.0898C11.5838 49.7616 11.1929 49.6304 10.7037 48.9077C9.9927 47.8576 10.4757 46.9705 11.7308 47.0213C12.5452 47.0543 12.8897 47.2908 12.8052 47.7591ZM16.3435 49.0787C16.2575 49.2173 16.0047 49.7649 15.7819 50.2956C14.8633 52.4829 12.7506 53.561 11.2858 52.5905C10.9317 52.3559 10.9112 52.3778 10.9112 52.9912C10.9112 54.3311 11.9204 55.1798 13.5202 55.1852C15.0507 55.1904 16.1393 53.9275 16.4961 51.7326C16.6923 50.5259 16.5865 48.6871 16.3435 49.0787ZM17.2671 54.2577C17.116 54.4379 16.9483 54.5799 16.8942 54.5732C16.84 54.5665 16.9192 54.4135 17.0703 54.2333C17.2213 54.0531 17.3891 53.9111 17.4432 53.9178C17.4973 53.9245 17.4182 54.0775 17.2671 54.2577Z" fill="#554AF0"/>
</g>
<defs>
<clipPath id="clip0_880_8462">
<rect width="55" height="53.0702" fill="white" transform="translate(0.0136719 0.550049)"/>
</clipPath>
</defs>
</svg>
